<svg width="612.05px" height="121.33333129882813px" xmlns="http://www.w3.org/2000/svg" viewBox="-56.02499999999998 14.333334350585936 612.05 121.33333129882813" style="background: rgba(0, 0, 0, 0);" preserveAspectRatio="xMidYMid"><defs><linearGradient id="editing-gradient-gradient" x1="0" x2="1" y1="0.5" y2="0.5" gradientUnits="objectBoundingBox"><stop offset="0" stop-color="#f0f"></stop><stop offset="1" stop-color="#0ff"></stop></linearGradient></defs><g><g transform="translate(32.690018743276596, 102.80500030517578)"><path d="M24.96-4.80L24.96-4.80L24.96-4.80Q24.96-9.28 26.75-18.24L26.75-18.24L17.28-18.24L13.76 0L0.38 0L8.51-42.24L22.02-42.24L18.30-23.36L27.78-23.36L31.30-42.24L44.80-42.24L44.80-42.24Q43.90-37.50 42.75-32.19L42.75-32.19L40.58-21.76L40.58-21.76Q38.14-9.60 38.14-4.29L38.14-4.29L38.14-4.29Q38.14-2.11 38.85-0.90L38.85-0.90L38.85-0.90Q35.65 1.28 31.90 1.28L31.90 1.28L31.90 1.28Q28.16 1.28 26.56-0.51L26.56-0.51L26.56-0.51Q24.96-2.30 24.96-4.80ZM49.12-1.92L49.12-1.92L49.12-1.92Q47.62-3.58 46.94-6.21L46.94-6.21L46.94-6.21Q46.27-8.83 46.27-13.12L46.27-13.12L46.27-13.12Q46.27-17.41 47.74-21.31L47.74-21.31L47.74-21.31Q49.22-25.22 51.90-28.03L51.90-28.03L51.90-28.03Q57.41-33.92 66.50-33.92L66.50-33.92L66.50-33.92Q69.76-33.92 72.13-32.83L72.13-32.83L83.07-33.92L78.34-8.96L78.34-8.96Q78.14-8.19 78.14-6.78L78.14-6.78L78.14-6.78Q78.14-5.38 79.01-4.48L79.01-4.48L79.01-4.48Q79.87-3.58 81.15-3.46L81.15-3.46L81.15-3.46Q80.51-1.28 78.18 0L78.18 0L78.18 0Q75.84 1.28 73.22 1.28L73.22 1.28L73.22 1.28Q70.59 1.28 68.83 0.29L68.83 0.29L68.83 0.29Q67.07-0.70 66.56-2.37L66.56-2.37L66.56-2.37Q65.54-0.77 63.36 0.26L63.36 0.26L63.36 0.26Q61.18 1.28 58.27 1.28L58.27 1.28L58.27 1.28Q55.36 1.28 52.99 0.51L52.99 0.51L52.99 0.51Q50.62-0.26 49.12-1.92ZM62.62-27.90L62.62-27.90L62.62-27.90Q61.89-26.75 61.25-24.80L61.25-24.80L61.25-24.80Q60.61-22.85 59.55-17.63L59.55-17.63L59.55-17.63Q58.50-12.42 58.50-8.70L58.50-8.70L58.50-8.70Q58.50-4.99 59.07-3.90L59.07-3.90L59.07-3.90Q59.65-2.82 60.67-2.82L60.67-2.82L60.67-2.82Q62.72-2.82 64.22-4.77L64.22-4.77L64.22-4.77Q65.73-6.72 66.30-10.18L66.30-10.18L69.70-28.93L69.70-28.93Q68.35-30.08 66.78-30.08L66.78-30.08L66.78-30.08Q65.22-30.08 64.29-29.57L64.29-29.57L64.29-29.57Q63.36-29.06 62.62-27.90ZM116.35-4.38L116.35-4.38L116.35-4.38Q113.66-1.66 109.98-0.19L109.98-0.19L109.98-0.19Q106.30 1.28 102.66 1.28L102.66 1.28L102.66 1.28Q99.01 1.28 97.73 0.64L97.73 0.64L95.74 11.52L82.75 12.80L91.58-32.64L102.02-33.73L101.18-29.31L101.18-29.31Q103.87-33.86 109.44-33.86L109.44-33.86L109.44-33.86Q115.71-33.86 119.04-29.82L119.04-29.82L119.04-29.82Q121.98-26.18 121.98-20.61L121.98-20.61L121.98-20.61Q121.98-15.04 120.51-11.07L120.51-11.07L120.51-11.07Q119.04-7.10 116.35-4.38ZM101.89-22.34L98.50-3.58L98.50-3.58Q99.84-2.43 101.50-2.43L101.50-2.43L101.50-2.43Q103.17-2.43 104.13-3.07L104.13-3.07L104.13-3.07Q105.09-3.71 105.79-4.99L105.79-4.99L105.79-4.99Q107.71-8.45 109.25-18.94L109.25-18.94L109.25-18.94Q109.70-22.02 109.70-25.02L109.70-25.02L109.70-25.02Q109.70-28.03 109.02-28.99L109.02-28.99L109.02-28.99Q108.35-29.95 107.07-29.95L107.07-29.95L107.07-29.95Q103.17-29.95 101.89-22.34L101.89-22.34ZM155.65-4.38L155.65-4.38L155.65-4.38Q152.96-1.66 149.28-0.19L149.28-0.19L149.28-0.19Q145.60 1.28 141.95 1.28L141.95 1.28L141.95 1.28Q138.30 1.28 137.02 0.64L137.02 0.64L135.04 11.52L122.05 12.80L130.88-32.64L141.31-33.73L140.48-29.31L140.48-29.31Q143.17-33.86 148.74-33.86L148.74-33.86L148.74-33.86Q155.01-33.86 158.34-29.82L158.34-29.82L158.34-29.82Q161.28-26.18 161.28-20.61L161.28-20.61L161.28-20.61Q161.28-15.04 159.81-11.07L159.81-11.07L159.81-11.07Q158.34-7.10 155.65-4.38ZM141.18-22.34L137.79-3.58L137.79-3.58Q139.14-2.43 140.80-2.43L140.80-2.43L140.80-2.43Q142.46-2.43 143.42-3.07L143.42-3.07L143.42-3.07Q144.38-3.71 145.09-4.99L145.09-4.99L145.09-4.99Q147.01-8.45 148.54-18.94L148.54-18.94L148.54-18.94Q148.99-22.02 148.99-25.02L148.99-25.02L148.99-25.02Q148.99-28.03 148.32-28.99L148.32-28.99L148.32-28.99Q147.65-29.95 146.37-29.95L146.37-29.95L146.37-29.95Q142.46-29.95 141.18-22.34L141.18-22.34ZM185.47-7.23L185.47-7.23L185.47-7.23Q182.14-3.78 176.06-3.78L176.06-3.78L176.06-3.78Q168.45-3.78 166.85-9.34L166.85-9.34L166.85-9.34Q166.34-11.01 166.34-12.86L166.34-12.86L166.34-12.86Q166.34-14.72 166.72-16.64L166.72-16.64L169.73-32.64L182.72-33.92L179.20-15.30L179.20-15.30Q179.07-14.46 178.88-13.57L178.88-13.57L178.88-13.57Q178.69-12.67 178.69-11.74L178.69-11.74L178.69-11.74Q178.69-10.82 179.01-10.21L179.01-10.21L179.01-10.21Q179.33-9.60 179.78-9.22L179.78-9.22L179.78-9.22Q180.54-8.70 181.92-8.70L181.92-8.70L181.92-8.70Q183.30-8.70 184.48-10.37L184.48-10.37L184.48-10.37Q185.66-12.03 186.24-14.91L186.24-14.91L189.76-32.64L202.37-33.92L197.57-8.77L197.57-8.77Q195.20 3.52 190.34 8.38L190.34 8.38L190.34 8.38Q187.84 10.88 184.61 11.87L184.61 11.87L184.61 11.87Q181.38 12.86 177.22 12.86L177.22 12.86L177.22 12.86Q170.50 12.86 166.66 10.75L166.66 10.75L166.66 10.75Q162.82 8.64 162.82 5.12L162.82 5.12L162.82 5.12Q162.82 2.50 164.80 0.99L164.80 0.99L164.80 0.99Q166.78-0.51 169.86-0.51L169.86-0.51L169.86-0.51Q172.54-0.51 174.59 0.64L174.59 0.64L174.59 0.64Q175.81 1.34 176.38 2.24L176.38 2.24L176.38 2.24Q174.91 3.52 174.91 5.63L174.91 5.63L174.91 5.63Q174.91 8.45 177.47 8.45L177.47 8.45L177.47 8.45Q181.70 8.45 184.13-1.28L184.13-1.28L184.13-1.28Q184.83-4.16 185.47-7.23ZM230.98 0L217.28 0L225.09-42.05L225.09-42.05Q231.42-42.75 240.67-42.75L240.67-42.75L240.67-42.75Q249.92-42.75 254.21-40.06L254.21-40.06L254.21-40.06Q258.50-37.38 258.50-31.97L258.50-31.97L258.50-31.97Q258.50-26.56 255.71-23.17L255.71-23.17L255.71-23.17Q252.93-19.78 248.13-18.69L248.13-18.69L248.13-18.69Q249.22-13.38 251.71-9.09L251.71-9.09L251.71-9.09Q254.02-5.06 256.70-3.78L256.70-3.78L256.70-3.78Q255.74-1.09 253.79 0.10L253.79 0.10L253.79 0.10Q251.84 1.28 249.06 1.28L249.06 1.28L249.06 1.28Q246.27 1.28 244.10-0.35L244.10-0.35L244.10-0.35Q241.92-1.98 240.19-4.99L240.19-4.99L240.19-4.99Q236.54-11.52 236.16-21.82L236.16-21.82L236.61-21.82L236.61-21.82Q241.34-21.95 243.71-24.42L243.71-24.42L243.71-24.42Q246.08-26.88 246.08-32.06L246.08-32.06L246.08-32.06Q246.08-38.53 240.64-38.78L240.64-38.78L239.23-38.78L239.23-38.78Q238.66-38.78 238.34-38.72L238.34-38.72L230.98 0ZM287.36-10.82L287.36-10.82L287.36-10.82Q288.96-9.73 288.96-7.33L288.96-7.33L288.96-7.33Q288.96-4.93 287.74-3.39L287.74-3.39L287.74-3.39Q286.53-1.86 284.54-0.83L284.54-0.83L284.54-0.83Q280.45 1.28 276.03 1.28L276.03 1.28L276.03 1.28Q271.62 1.28 269.02 0.32L269.02 0.32L269.02 0.32Q266.43-0.64 264.70-2.43L264.70-2.43L264.70-2.43Q261.31-5.82 261.31-12.03L261.31-12.03L261.31-12.03Q261.31-21.70 266.56-27.58L266.56-27.58L266.56-27.58Q272.19-33.92 281.98-33.92L281.98-33.92L281.98-33.92Q288.06-33.92 291.07-31.36L291.07-31.36L291.07-31.36Q293.31-29.44 293.31-26.30L293.31-26.30L293.31-26.30Q293.31-15.04 273.86-15.04L273.86-15.04L273.86-15.04Q273.60-13.38 273.60-11.97L273.60-11.97L273.60-11.97Q273.60-9.02 274.91-7.90L274.91-7.90L274.91-7.90Q276.22-6.78 278.66-6.78L278.66-6.78L278.66-6.78Q281.09-6.78 283.68-7.90L283.68-7.90L283.68-7.90Q286.27-9.02 287.36-10.82ZM274.30-17.79L274.30-17.79L274.30-17.79Q278.85-17.79 281.47-20.61L281.47-20.61L281.47-20.61Q284.10-23.30 284.10-27.58L284.10-27.58L284.10-27.58Q284.10-29.06 283.55-29.86L283.55-29.86L283.55-29.86Q283.01-30.66 281.92-30.66L281.92-30.66L281.92-30.66Q280.83-30.66 279.90-30.24L279.90-30.24L279.90-30.24Q278.98-29.82 278.02-28.42L278.02-28.42L278.02-28.42Q275.65-25.22 274.30-17.79ZM326.91-26.62L326.91-26.62L326.91-26.62Q326.91-23.94 324.67-22.27L324.67-22.27L324.67-22.27Q322.43-20.61 318.78-20.61L318.78-20.61L318.78-20.61Q317.25-20.61 316.35-21.06L316.35-21.06L316.35-21.06Q317.06-22.72 317.28-24.80L317.28-24.80L317.28-24.80Q317.50-26.88 317.50-27.46L317.50-27.46L317.50-27.46Q317.50-30.14 315.65-30.14L315.65-30.14L315.65-30.14Q314.37-30.14 312.93-28.54L312.93-28.54L312.93-28.54Q311.49-26.94 310.27-24.45L310.27-24.45L310.27-24.45Q307.58-18.69 307.58-12.86L307.58-12.86L307.58-12.86Q307.58-9.66 308.80-8.22L308.80-8.22L308.80-8.22Q310.02-6.78 312.70-6.78L312.70-6.78L312.70-6.78Q316.42-6.78 319.36-9.86L319.36-9.86L319.36-9.86Q320.19-10.82 320.64-11.90L320.64-11.90L320.64-11.90Q323.07-10.62 323.07-7.10L323.07-7.10L323.07-7.10Q323.07-3.52 319.10-1.15L319.10-1.15L319.10-1.15Q315.01 1.28 308.48 1.28L308.48 1.28L308.48 1.28Q295.49 1.28 295.49-12.48L295.49-12.48L295.49-12.48Q295.49-22.53 301.18-28.29L301.18-28.29L301.18-28.29Q306.69-33.92 316.80-33.92L316.80-33.92L316.80-33.92Q326.91-33.92 326.91-26.62ZM348.67-17.98L348.67-17.98L348.67-17.98Q350.98-22.08 350.98-26.24L350.98-26.24L350.98-26.24Q350.98-28.99 348.99-28.99L348.99-28.99L348.99-28.99Q347.46-28.99 345.86-26.37L345.86-26.37L345.86-26.37Q344.19-23.74 343.68-20.35L343.68-20.35L340.35 0L327.10 1.28L333.63-32.64L344.19-33.92L343.04-27.46L343.04-27.46Q346.18-33.92 353.22-33.92L353.22-33.92L353.22-33.92Q356.93-33.92 358.94-32L358.94-32L358.94-32Q360.96-30.08 360.96-26.14L360.96-26.14L360.96-26.14Q360.96-22.21 358.37-19.71L358.37-19.71L358.37-19.71Q355.78-17.22 351.36-17.22L351.36-17.22L351.36-17.22Q349.44-17.22 348.67-17.98ZM382.53-2.69L382.53-2.69L382.53-2.69Q379.46 1.28 371.84 1.28L371.84 1.28L371.84 1.28Q367.87 1.28 364.99-1.12L364.99-1.12L364.99-1.12Q362.11-3.52 362.11-6.98L362.11-6.98L362.11-6.98Q362.11-8.90 362.30-9.86L362.30-9.86L366.59-32.64L379.58-33.92L374.91-9.22L374.91-9.22Q374.66-7.81 374.66-6.98L374.66-6.98L374.66-6.98Q374.66-3.26 376.90-3.26L376.90-3.26L376.90-3.26Q379.39-3.26 381.18-6.66L381.18-6.66L381.18-6.66Q381.76-7.74 382.02-9.15L382.02-9.15L386.56-32.64L399.17-33.92L394.43-8.96L394.43-8.96Q394.24-8 394.24-6.98L394.24-6.98L394.24-6.98Q394.24-5.95 394.82-4.83L394.82-4.83L394.82-4.83Q395.39-3.71 397.25-3.46L397.25-3.46L397.25-3.46Q396.86-1.92 395.52-0.90L395.52-0.90L395.52-0.90Q392.70 1.28 389.66 1.28L389.66 1.28L389.66 1.28Q386.62 1.28 384.83 0.19L384.83 0.19L384.83 0.19Q383.04-0.90 382.53-2.69ZM428.29-10.82L428.29-10.82L428.29-10.82Q429.89-9.73 429.89-7.33L429.89-7.33L429.89-7.33Q429.89-4.93 428.67-3.39L428.67-3.39L428.67-3.39Q427.46-1.86 425.47-0.83L425.47-0.83L425.47-0.83Q421.38 1.28 416.96 1.28L416.96 1.28L416.96 1.28Q412.54 1.28 409.95 0.32L409.95 0.32L409.95 0.32Q407.36-0.64 405.63-2.43L405.63-2.43L405.63-2.43Q402.24-5.82 402.24-12.03L402.24-12.03L402.24-12.03Q402.24-21.70 407.49-27.58L407.49-27.58L407.49-27.58Q413.12-33.92 422.91-33.92L422.91-33.92L422.91-33.92Q428.99-33.92 432-31.36L432-31.36L432-31.36Q434.24-29.44 434.24-26.30L434.24-26.30L434.24-26.30Q434.24-15.04 414.78-15.04L414.78-15.04L414.78-15.04Q414.53-13.38 414.53-11.97L414.53-11.97L414.53-11.97Q414.53-9.02 415.84-7.90L415.84-7.90L415.84-7.90Q417.15-6.78 419.58-6.78L419.58-6.78L419.58-6.78Q422.02-6.78 424.61-7.90L424.61-7.90L424.61-7.90Q427.20-9.02 428.29-10.82ZM415.23-17.79L415.23-17.79L415.23-17.79Q419.78-17.79 422.40-20.61L422.40-20.61L422.40-20.61Q425.02-23.30 425.02-27.58L425.02-27.58L425.02-27.58Q425.02-29.06 424.48-29.86L424.48-29.86L424.48-29.86Q423.94-30.66 422.85-30.66L422.85-30.66L422.85-30.66Q421.76-30.66 420.83-30.24L420.83-30.24L420.83-30.24Q419.90-29.82 418.94-28.42L418.94-28.42L418.94-28.42Q416.58-25.22 415.23-17.79Z" fill="url(#editing-gradient-gradient)"></path></g></g><style>text {
  font-size: 64px;
  font-family: Arial Black;
  dominant-baseline: central;
  text-anchor: middle;
}</style></svg>