<svg width="140.81666870117186px" height="121.33333129882813px" xmlns="http://www.w3.org/2000/svg" viewBox="179.59166564941407 14.333334350585936 140.81666870117186 121.33333129882813" style="background: rgba(0, 0, 0, 0);" preserveAspectRatio="xMidYMid"><defs><linearGradient id="editing-gradient-gradient" x1="0" x2="1" y1="0.5" y2="0.5" gradientUnits="objectBoundingBox"><stop offset="0" stop-color="#f0f"></stop><stop offset="1" stop-color="#0ff"></stop></linearGradient></defs><g><g transform="translate(206.31999692320824, 97.01499938964844)"><path d="M24.96-4.80L24.96-4.80L24.96-4.80Q24.96-9.28 26.75-18.24L26.75-18.24L17.28-18.24L13.76 0L0.38 0L8.51-42.24L22.02-42.24L18.30-23.36L27.78-23.36L31.30-42.24L44.80-42.24L44.80-42.24Q43.90-37.50 42.75-32.19L42.75-32.19L40.58-21.76L40.58-21.76Q38.14-9.60 38.14-4.29L38.14-4.29L38.14-4.29Q38.14-2.11 38.85-0.90L38.85-0.90L38.85-0.90Q35.65 1.28 31.90 1.28L31.90 1.28L31.90 1.28Q28.16 1.28 26.56-0.51L26.56-0.51L26.56-0.51Q24.96-2.30 24.96-4.80ZM59.46 0L45.76 0L53.57-42.05L53.57-42.05Q59.90-42.75 69.15-42.75L69.15-42.75L69.15-42.75Q78.40-42.75 82.69-40.06L82.69-40.06L82.69-40.06Q86.98-37.38 86.98-31.97L86.98-31.97L86.98-31.97Q86.98-26.56 84.19-23.17L84.19-23.17L84.19-23.17Q81.41-19.78 76.61-18.69L76.61-18.69L76.61-18.69Q77.70-13.38 80.19-9.09L80.19-9.09L80.19-9.09Q82.50-5.06 85.18-3.78L85.18-3.78L85.18-3.78Q84.22-1.09 82.27 0.10L82.27 0.10L82.27 0.10Q80.32 1.28 77.54 1.28L77.54 1.28L77.54 1.28Q74.75 1.28 72.58-0.35L72.58-0.35L72.58-0.35Q70.40-1.98 68.67-4.99L68.67-4.99L68.67-4.99Q65.02-11.52 64.64-21.82L64.64-21.82L65.09-21.82L65.09-21.82Q69.82-21.95 72.19-24.42L72.19-24.42L72.19-24.42Q74.56-26.88 74.56-32.06L74.56-32.06L74.56-32.06Q74.56-38.53 69.12-38.78L69.12-38.78L67.71-38.78L67.71-38.78Q67.14-38.78 66.82-38.72L66.82-38.72L59.46 0Z" fill="url(#editing-gradient-gradient)"></path></g></g><style>text {
  font-size: 64px;
  font-family: Arial Black;
  dominant-baseline: central;
  text-anchor: middle;
}</style></svg>